# xmcd CD database file
#
# Track frame offsets:
#	150
#	32058
#	56051
#	81853
#	102204
#	130450
#	165266
#	189361
#	207738
#	234910
#	263515
#
# Disc length: 4325 seconds
#
# Revision: 0
# Processed by: cddbd v1.5.1PL0 Copyright (c) Steve Scherf et al.
# Submitted via: CDex 1.51
#
DISCID=8d10e30b
DTITLE=Ernesto Jodos - Perspectiva
DYEAR=2005
DGENRE=Jazz
TTITLE0=Perspectiva
TTITLE1=Contra Todos Los Males De Este Mundo (El Antídoto)
TTITLE2=El Donny
TTITLE3=La Colombe
TTITLE4=M2M3 
TTITLE5=Libros
TTITLE6=Drenar Los Años
TTITLE7=¡Cómo Suenan Esas Tapas!
TTITLE8=El Escondedor
TTITLE9=Ella También
TTITLE10=Milo
EXTD=YEAR: 2005
EXTT0=
EXTT1=
EXTT2=
EXTT3=
EXTT4=
EXTT5=
EXTT6=
EXTT7=
EXTT8=
EXTT9=
EXTT10=
PLAYORDER=
